P3
3 3
255
0 0 0 
0 38 255 
255 106 0 
160 160 160 
255 0 0 
178 0 255 
255 0 110 
255 255 255 
0 255 33 
